<svg xmlns="http://www.w3.org/2000/svg" width="1280" height="342" viewBox="0 0 1280 342" role="img" aria-label="Lines of code by language, TypeScript leading at 1225 thousand">
<defs><linearGradient id="g" x1="0" y1="0" x2="0" y2="1"><stop offset="0" stop-color="#fbfaf7"/><stop offset="1" stop-color="#f3f1ec"/></linearGradient></defs>
<rect width="1280" height="342" fill="url(#g)"/><rect x="0.5" y="0.5" width="1279" height="341" fill="none" stroke="#d8d3c8"/>
<text x="64" y="34" font-family="Avenir Next, Helvetica Neue, Arial, sans-serif" font-size="15" font-weight="600" letter-spacing="1" fill="#20242a">WHAT IT&#8217;S WRITTEN IN</text>
<text x="64" y="54" font-family="SF Mono, Menlo, Consolas, monospace" font-size="12" fill="#7d8794">1.77M lines in production across 18 audited repos</text>
<text x="216" y="93" font-family="Avenir Next, Helvetica Neue, Arial, sans-serif" font-size="14" fill="#7d8794" text-anchor="end">TypeScript</text>
<rect x="230" y="76" width="900" height="24" rx="3" fill="#8a5a10"/>
<text x="1142" y="93" font-family="SF Mono, Menlo, Consolas, monospace" font-size="12.5" fill="#20242a">1225K</text>
<text x="216" y="127" font-family="Avenir Next, Helvetica Neue, Arial, sans-serif" font-size="14" fill="#7d8794" text-anchor="end">Swift</text>
<rect x="230" y="110" width="135" height="24" rx="3" fill="#9c660f"/>
<text x="377" y="127" font-family="SF Mono, Menlo, Consolas, monospace" font-size="12.5" fill="#20242a">184K</text>
<text x="216" y="161" font-family="Avenir Next, Helvetica Neue, Arial, sans-serif" font-size="14" fill="#7d8794" text-anchor="end">JavaScript</text>
<rect x="230" y="144" width="94" height="24" rx="3" fill="#b97a17"/>
<text x="336" y="161" font-family="SF Mono, Menlo, Consolas, monospace" font-size="12.5" fill="#20242a">127K</text>
<text x="216" y="195" font-family="Avenir Next, Helvetica Neue, Arial, sans-serif" font-size="14" fill="#7d8794" text-anchor="end">Shell</text>
<rect x="230" y="178" width="50" height="24" rx="3" fill="#cf8c1f"/>
<text x="292" y="195" font-family="SF Mono, Menlo, Consolas, monospace" font-size="12.5" fill="#20242a">68K</text>
<text x="216" y="229" font-family="Avenir Next, Helvetica Neue, Arial, sans-serif" font-size="14" fill="#7d8794" text-anchor="end">Python</text>
<rect x="230" y="212" width="48" height="24" rx="3" fill="#dd9c33"/>
<text x="290" y="229" font-family="SF Mono, Menlo, Consolas, monospace" font-size="12.5" fill="#20242a">66K</text>
<text x="216" y="263" font-family="Avenir Next, Helvetica Neue, Arial, sans-serif" font-size="14" fill="#7d8794" text-anchor="end">SQL</text>
<rect x="230" y="246" width="37" height="24" rx="3" fill="#e8ab52"/>
<text x="279" y="263" font-family="SF Mono, Menlo, Consolas, monospace" font-size="12.5" fill="#20242a">50K</text>
<text x="216" y="297" font-family="Avenir Next, Helvetica Neue, Arial, sans-serif" font-size="14" fill="#7d8794" text-anchor="end">HTML</text>
<rect x="230" y="280" width="19" height="24" rx="3" fill="#efbe78"/>
<text x="261" y="297" font-family="SF Mono, Menlo, Consolas, monospace" font-size="12.5" fill="#20242a">26K</text>
</svg>